<svg xmlns="http://www.w3.org/2000/svg" xml:space="preserve" viewBox="0 0 244.5 205.8"><path d="M136.1 87.7c-1.5-1.3-3-2.5-4.5-3.7l-.4.4c1.3 1.5 2.6 2.9 4.1 4.6-1.1.9-2.3 1.8-3.5 2.9-1.5-1.4-2.9-2.6-4.3-3.9-.2.1-.3.3-.5.4q1.95 2.1 4.2 4.5c-2.7 2.3-5.3 4.6-8.4 7.3-.1.2-.3 1.3-1 2-11 10.9-22.1 21.7-33.1 32.5-.5.5-.9 1.1-1.5 1.9 1.3 1.4 2.6 2.7 4.1 4.3 3.7-3.5 7.4-6.9 10.9-10.3 16.2-15.8 32.3-31.6 48.6-47.3 1.2-1.2 3.3-2.1 4.9-2.1 6.6-.1 13.1.2 19.7.3.8 0 1.7-.6 2.3-1.1 10.1-9.7 20.2-19.4 30.3-29 1.5-1.5 1.1-2.3 0-3.7-6-7.5-2.8-18.9 5.9-21.2 5-1.3 9.5-.2 13.1 3.7 3.9 4.3 4.9 9.4 2.6 14.7-1 2.4-.7 3.8 1.2 5.4 2.1 1.7 3.9 3.7 6.4 6.2.2-1.8.3-2.5.3-3.3 0-8.3 0-16.6-.1-24.9 0-1.2-.5-2.6-1.3-3.4q-9-9.45-18.3-18.6c-.8-.8-2.2-1.3-3.4-1.4q-16.5-.15-33 0c-1.2 0-2.7.7-3.6 1.5-16.4 16-32.8 32-49.1 48-.7.7-1.8 1.2-2.7 1.8-.3-.3-.5-.6-.8-.9.6-.7 1.1-1.5 1.7-2.2 16.7-16.5 33.4-33 50.2-49.5.9-.9 2.6-1.6 3.9-1.6q16.65-.15 33.3 0c1.4 0 3.2.6 4.2 1.6 6.9 6.7 13.7 13.5 20.4 20.3.7.7 1.2 2.1 1.2 3.2.1 9.5 0 19 .1 28.5 0 2.9-1.1 5.1-3.2 7.1-13.9 13.4-27.8 26.7-41.7 40.2-4.4 4.2-8.6 8.6-12.8 13-1.5 1.5-3 2.2-5.3 1.2 2-2.1 4-4 5.9-6 12.2-12.3 24.3-24.6 36.5-36.9 4.5-4.5 9-9.1 13.6-13.5 1.3-1.3 1.4-2.3 0-3.5-1-.9-2-2-2.9-3-2.3-2.7-4.6-4.5-8.6-2.3-2 1-5 .8-7.3.3-2-.4-3.2 0-4.4 1.3l-22.8 23.4c-3.8 3.9-7.5 7.7-11.4 11.5-.8.7-2.1 1.2-3.1 1.2-5.2.1-10.4 0-15.6.1-1.3 0-2.9.6-3.9 1.6-17.8 17-35.4 34.2-53.1 51.2-2 1.9-4.3 3.5-6.5 5.3-.5.4-.9 1.1-1 1.7-.7 5.2-3.8 8.5-8.6 10-5 1.6-9.4.2-13.3-3.2-.7-.6-1.1-1.6-1.8-2.6-5.3 5.5-10.1 10.5-15 15.6 2.3 3.1 3.5 7.1 2.3 11.6-.1.5.5 1.2.9 1.7 4.5 4.7 9 9.4 13.6 14 .8.8 2.5.8 3.7 1.3.5.2.9.8 1.3 1.2-.4.4-.8 1-1.2 1-2.2.1-4.2.2-6-1.7-3.7-4.1-7.6-7.9-11.5-11.8-.7-.7-1.4-1.3-2.3-2.1-.8.8-1.4 1.6-2.1 2.2-6.4 6.2-15.7 5.1-20.5-2.6-1.3-2.2-2.7-2.9-5-2.6q-1.5.15-3 0c-3.1-.2-5.6 0-7 3.7-1.2 3.3-5.6 4.6-9.2 3.6-3.4-.9-6.5-4.8-6.5-8.1-.1-3.5 2.4-7 5.9-8.2 3.7-1.3 7.8-.3 9.5 2.9 1.4 2.5 3.1 3 5.5 2.7h.3c2.2 0 4.9.7 6.5-.3 1.4-.9 1.6-3.6 2.3-5.6 2.7-7 10.7-10.2 17.6-6.9 2 .9 3.2.7 4.7-.9 4-4.2 8.3-8.1 12.3-12.3.7-.8 1.1-2.2 1-3.3-.5-8.2 6.8-14.8 14.1-13.6 1.2.2 2.9-.2 3.7-1Q97.55 121.75 110 109c3-3 2.9-3.1-.1-6.1-.3-.3-.5-.6-1-1.2 4.2-4.4 8.4-8.8 12.7-13.1 7.9-7.8 15.9-15.4 23.9-23.1 1.2-1.2 2.5-2.4 3.7-3.5 1.8-1.7 3.8-3.1 3.4-6.2-.1-1 1-2.3 1.9-3.2 5.1-5.1 10.2-10.1 15.5-15 1.7-1.6 2.4-3.1 1.6-5.4-2.5-7.1 2.5-14.4 9-16.1 6.9-1.8 13.9 2.2 16.3 9.2 2.2 6.6-2.2 14.3-9.3 16.4-4.2 1.2-8.4 6.7-8.3 11.1 0 4.6-.4 9.2.1 13.8.5 5-1.6 8.1-6.2 10.2.4-.7.6-1.7 1.2-2.1 2.2-1.7 2.8-3.8 2.7-6.5-.2-5.4.2-10.8-.2-16.2-.2-3.1 1.1-5.1 3.1-7 1.7-1.5 1.6-2.6-.4-3.9-3.8-2.3-3.7-2.4-6.8.8-3.8 4-7.6 7.9-11.3 12-1 1.1-1.9 2.9-1.7 4.2 1.2 6.6-2.5 10.6-6.9 14.5l-16.2 14.7c.2-.2-.2 0-.6.4m-90.8 79.7c-3.2-1.8-8.4-.2-9.5 3.2-.2.5-.1 1.3.2 1.6s1.2.3 1.6.1c2.6-1.7 5.2-3.3 7.7-4.9m142-148.1c-1.4-1.3-4.9-1.8-7.4-.4-1.6.8-3 1.9-2.3 4.4 3.4-1.4 6.7-2.7 9.7-4m31.9 10.4c-2.1-1.9-7.1-1.1-8.6 1.7-.3.6-.2 1.4-.2 2.1.7-.1 1.5 0 2.1-.3 2.2-1 4.4-2.3 6.7-3.5m-63 35c-1.5-1.1-2.4-2.1-3.1-2-.8.1-1.4 1.3-2.1 2 .7.7 1.4 1.7 2.2 1.8.7.1 1.5-.9 3-1.8m-17.9 16.1c-1.1-.9-1.8-1.9-2.5-1.9s-1.4.9-2.2 1.4c.7.7 1.2 1.8 2.1 2.1.4.2 1.3-.8 2.6-1.6"/></svg>