<svg xmlns="http://www.w3.org/2000/svg" xml:space="preserve" viewBox="0 0 310.8 468.2"><path d="M84.6 397.4c-.2.6-.5 1.2-.4 1.8.6 3.4-1.4 4.4-4.2 5.3-1.2.4-2.4 2-3 3.4-.9 2.2-2.2 3.6-4.6 3.9-2.2.3-3.1 1.6-3.3 3.8-.1 1.6-1 3.1-1.5 4.6 2.1-.3 4.5-.7 7.1-1.1.2-.9.6-2 .7-3 .3-2.7 1.2-4.7 4.4-4.9.8-.1 1.6-.7 2.2-1.3 3.4-3.7 7.5-6.9 9.6-11.8.3-.8 1.4-1.8 2.1-1.8 4.2.1 4.9-3.5 6.6-6 .5-.7 1.1-1.4 1.8-1.9 1.8-1.4 3.9-2.5 5.6-4.1 6-5.5 12-11.1 17.8-16.9 1.1-1.1 1.9-2.9 1.9-4.3.2-14 .2-28 .3-42 0-1.1.3-2.2.5-3.3.3 0 .7.1 1 .1.1.6.3 1.2.3 1.9 0 15.1.1 30.2-.1 45.3 0 1.5-.7 3.4-1.7 4.5-11.7 12.1-23.5 24-35.3 36-6.6 6.7-13 13.5-19.7 20.1-1.1 1.1-2.9 1.7-4.4 1.8-5.7.2-11.4 0-17.1.2-1.4 0-3 .6-4 1.5-8.5 8-16.9 16.2-25.2 24.4-.7.7-1 2.1-1.1 3.2-.3 5-4.3 9.2-9.1 9.3-4.9.1-9.7-4.1-10.1-8.9-.4-4.6 3.8-9.4 8.9-9.5 3.1 0 5-1.2 7-3.2 8.3-8.3 16.6-16.5 25-24.6 1-1 2.7-1.2 4.1-1.8.2-.1.4 0 .6 0 8 1.3 13.7-1.9 19.3-7.7 16.1-16.6 32.8-32.5 49.2-48.7.9-.9 1.7-2.5 1.7-3.8q.15-20.7 0-41.4c0-1.1-.7-2.4-1.5-3.3-2.9-3-3.9-6.5-2.5-10.1 1.4-3.4 4.4-3.9 7.7-3.9.8 0 1.8-.3 2.3-.9 12.1-11.9 24.1-23.9 36.2-35.9 1.4-1.4 2.3-2.8 2.1-5-.2-2.8 1.7-4.8 4.7-5.7 1-.3 2.1-.6 2.8-1.3 9.7-9.4 19.3-18.8 28.9-28.4.7-.7.9-2.1 1.4-3 .8-1.4 1.3-3.2 2.5-3.8.8-.4 3.4.6 3.6 1.4.4 1.5.3 3.8-.7 4.8-5.5 5.8-11.3 11.3-16.9 17-5 4.9-9.9 9.8-14.8 14.8-.4.4-.5 1.4-.3 2 1.1 5.7-.7 8.1-6.6 8.9-1 .1-2 .8-2.8 1.5-10.9 10.8-21.7 21.6-32.5 32.4-.8.8-1.6 1.8-2.6 2.5-1.5 1-1.8 2.2-1.4 4 .9 3.8-.4 6.7-3.7 8.6-1.6.9-2.1 2-2.1 3.8 0 12.7-.1 25.4-.2 38.1 0 2.2 0 4.4-.3 6.6-.1 1-.7 2-1.4 2.8-2.8 2.9-5.7 5.6-8.5 8.5-1.1 1.1-1.6 2.8-2.6 4-.9 1.1-2.2 2-3.5 2.6-2.4 1.1-4.3 2.2-4.3 5.3 0 2.8-2.3 3.2-4.4 3.7-2 .5-3.9 1-4.1 3.5-.3 2.9-1.9 4.3-4.8 4.5-.7.2-1.7.6-2.6.9M8.3 452.9c-.4-.3-.9-.7-1.3-1-.8 1.1-1.6 2.2-2.3 3.4-.1.1.9.8 1.3 1.2.8-1.2 1.6-2.4 2.3-3.6M104.3 306.9c-.1-1.1-.2-2.1-.2-3.2 0-3.8.5-7.7-.1-11.4-.9-5.4 2.1-8.6 5.7-11.6.7-.6 1.9-.9 2.7-.7 5.6.8 9.3-1.5 13.1-5.6 10.3-10.9 21.2-21.2 31.9-31.7 1.1-1.1 2.2-2.3 3.4-3.4 2-1.8 3.1-3.4 1.4-6.4-.9-1.6.1-4.7 1.1-6.6 1-1.8 3.1-2.5 5.5-1.8 3.1.8 6.3-2.5 5.7-5.6-1.1-5.7 1.6-10.7 6.6-11.2 2.1-.2 4.3 1.1 6.5 1.6 1 .2 2.5.7 2.9.3.7-.8 1-2.2.9-3.3-.2-1.9-1.2-3.9-1-5.8.6-5.8 2.9-8.1 9-9.6.1-.2.3-.4.2-.5-.9-4.7 1.7-7.7 5-10.7 6.9-6.4 13.5-13.1 20.3-19.5 1.8-1.7 2.7-3.6 2.4-6.1-.2-1.6-.1-3.2 0-4.8.3-3.6-.1-6.6-3.3-9.2s-2.1-7.3 1.9-9.4c1.7-.9 2-1.9 2-3.5 0-37 0-74 .1-111 0-2.1-1-2.9-2.5-3.8-2.8-1.8-3.6-4.9-2.3-7.8 1.3-2.8 4.4-4.3 7.2-3.4 3.1.9 5.3 3.7 4.7 6.7-.4 1.7-1.6 3.5-3 4.5-1.6 1.2-2 2.4-2 4.2v86.7c0 8 0 16-.2 24 0 1.5.2 2.4 1.7 3.3 5 3.1 4.8 8.2 0 11.6-.8.5-1.4 1.8-1.5 2.8q-.3 5.4 0 10.8c.1 2.2-.6 3.7-2.2 5.3-7.9 7.6-15.8 15.3-23.5 23.1-1 1-1.4 2.7-1.8 4.1-.2.6.5 1.4.7 2.1.7-.3 1.6-.4 2.1-.9 3.1-3 6.1-6.1 9.1-9.1 8.5-8.7 17.1-17.3 25.6-26.1 1-1 1.6-2.8 1.6-4.2.1-8.8-.1-17.6 0-26.4 0-1.6.7-3.7 1.9-4.6 6.4-5 9.6-11.2 8.1-19.4-.2-1.2-.1-2.4 0-3.6.2-2.3-.4-3.6-2.6-5-1.7-1.1-2.9-3.8-3.1-6-.3-2.4 1.6-4.3 3.9-5.5.9-.5 1.8-1.8 1.8-2.7.1-19.5 0-39 .1-58.5 0-2.1-1.1-2.6-2.5-3.4-2.7-1.5-4.5-5.3-3.9-7.8.8-3.1 3.5-5.4 6.7-5.6 2.9-.2 6.1 2 7.3 4.9 1.2 3-.2 6.1-3.4 8.4-.9.6-1.7 1.9-1.7 3-.1 19.8-.1 39.6-.1 59.4 0 1 .8 2.3 1.7 3 4 3.1 4.2 7.9.1 10.9-1.6 1.1-1.9 2.3-1.9 3.9q.15 7.2 0 14.4c0 1.2-.6 2.9-1.5 3.6-7.3 5.5-9.8 12.6-8.6 21.6.7 5.5.4 11.2.3 16.8 0 1.2-.6 2.8-1.5 3.6-7.9 8.2-16 16.2-23.9 24.4-3.8 3.8-7.5 7.8-11.2 11.6-1.1 1.1-1 1.8 0 3 3.5 4.3 3.7 9.2.7 13.2-2.2 2.9-6.4 5.8-12.5 3.5-1.8-.7-3.9.9-4.1 2.9-.1 1.1.1 2.2 0 3.3-.3 4-2.3 7-6 7.5-3.3.5-5.3 2.3-7.5 4.5-15.4 15.6-30.8 31.1-46.2 46.7-2.2 2.2-4.5 4.3-6.7 6.4-1.7 1.7-3.3 3.2-3.4 6-.1 2.9-5.9 7.6-9 7.9-6.2.6-7.6 2.1-7.6 8.3 0 .8-.1 1.7-.2 2.5-.3.1-.6.1-.9.1m61.6-72.6c2.7-.5 4.8-2.3 4.8-4 0-1.6-2.3-4-3.8-3.4-1.5.7-3.2 2.1-3.6 3.6-.2 1 1.7 2.6 2.6 3.8m34.3-39.3c-3.1-1.2-6.7.5-6.7 3.9 0 .6.3 1.3.8 1.7.2.2 1.2-.1 1.5-.5 1.5-1.7 3-3.5 4.4-5.1m-16.6 16.7c-2.4-1.3-4.3-1.2-5.5.9-.4.8.1 2.1.1 3.2 1-.2 2.3-.1 3.1-.6 1-.8 1.5-2.1 2.3-3.5m-62.9 74.4c-1.6-.9-2.5-2-3.2-1.8-.9.3-1.6 1.4-2.4 2.1.8.6 1.5 1.8 2.3 1.8.9.1 1.7-1 3.3-2.1"/><path d="M200.9 235.8c2.3-2.1 4.7-4.3 6.9-6.4 9.4-8.8 9.3-8.8 9.3-21.8 0-5.5.1-11-.1-16.5-.1-2.4.8-3.9 2.4-5.5 10.1-9.9 20.2-19.9 30.4-29.8 2-1.9 2.8-3.9 2.6-6.6q-.45-7.65-.3-15.3c0-1.5.8-3.3 1.8-4.4 5.5-5.6 11.2-10.9 16.6-16.4 1-1 1.6-2.7 1.7-4.2.2-5.7 0-11.4.1-17.1 0-1.3.7-2.9 1.6-3.9 7.5-7.5 15-14.9 22.7-22.3 1.9-1.8 2.5-3.7 2.7-6.2.5-5.3-1.1-9.1-5.4-12.3-3.5-2.6-6.4-6-9.5-9.1-.5-.5-.9-1.4-.8-2.1.4-2.8-.9-4.2-3.1-5.7-4.4-3-4.8-9.4-1.2-13.6 3.5-4.1 9.7-4.5 13.6-.9 4.4 4.1 4.7 10.2.7 14-2.8 2.7-2.8 2.6 0 5.4 4.1 4.1 8 8.4 12.1 12.5 1.6 1.6 2.5 3.3 2.3 5.8-.3 4.2 0 8.4 0 12.6 0 .9-.3 2-.9 2.6-2 1.9-4.3 3.6-6.3 5.5-6.3 6.1-12.6 12.3-18.8 18.5-.9 1-1.7 2.6-1.7 3.9-.3 6.1-.1 12.2-.4 18.3-.1 1.5-.8 3.3-1.8 4.3-4.5 4.7-9.1 9.2-13.9 13.7-2 1.9-2.8 4-2.7 6.6 0 4.6.1 9.2-.2 13.8-.1 1.3-.7 2.9-1.7 3.8q-17.7 17.1-35.7 33.9c-1.7 1.6-2.5 3.3-2.5 5.7 0 6.9-.1 13.8-.4 20.7 0 1.1-.7 2.4-1.5 3.2-5 5-10.1 10-15.2 14.9-.7.7-1.7 1.1-2.6 1.7-.2-.4-.5-.9-.8-1.3m95.8-189.5c1-1.4 1.9-2.1 1.9-2.9 0-.7-1.1-1.3-1.7-2-.7.7-1.7 1.2-1.9 2-.1.6.8 1.5 1.7 2.9"/><path d="M266.1 49.2c-.7-1.2-1.2-2.7-2.2-3.7-2-2.2-1.9-5.3.2-7.4.9-.9 1.6-2.4 1.7-3.6.3-3.9.5-7.8.3-11.7-.1-1.6-1.4-3.2-1.6-4.9-.2-1.8-.5-4.3.5-5.4s3.8-1.6 5.2-1c1.2.5 2.4 3 2.3 4.5 0 1.3-1.9 2.5-2.8 3.8-.6.9-1.5 1.8-1.6 2.7-.2 3.3 0 6.6-.1 9.9-.1 2.5-.1 4.7 2.4 6.6 2.2 1.7 1.6 4.5-.7 6.3-2.5 1.9-2.6 8.5-.1 10.4 5.7 4.3 6 8.9.5 13.4-1.8 1.5-2.2 2.9-2.2 5.1.1 9.8 0 19.6 0 29.4 0 2.8-.9 5.2-3 7.2-4.7 4.5-9.2 9.2-13.8 13.7-.7.7-1.9.9-2.8 1.4.4-1 .6-2.1 1.3-2.9 4.6-4.8 9.4-9.5 14-14.3.9-.9 1.5-2.4 1.5-3.6.1-10.5.1-21 .1-31.5 0-1.6-.3-2.5-1.9-3.2-3.2-1.4-5.4-3.8-5.4-7.6 0-3.5 1.4-6.4 4.7-7.7 3-1 3-3.2 3.5-5.9m5 13.5c0-2.7-2.7-5.4-5.4-5.3-2.8.1-4.9 2.4-4.8 5.3.1 2.8 2.3 5 5.2 5 2.8.1 5-2.1 5-5M107.6 359.1c-12.1 12.2-24.3 24.3-36.5 36.4M117.3 390c4.8-4.5 9.7-8.9 14.4-13.5 1-1 1.4-3 1.4-4.6q.15-29.7 0-59.4c0-4 .8-7.3 4.1-10 3.5-2.9 6.6-6.4 9.9-9.6.6-.6 1.4-1.1 2.1-1.6.2.2.5.4.7.6-.3.6-.6 1.3-1 1.8-4.1 4.1-8.3 8.1-12.2 12.4-1.1 1.2-1.6 3.4-1.6 5.2 0 9 .3 18 .3 27 0 12.1-.2 24.2-.4 36.3 0 1-.6 2.3-1.3 3-4.5 4.3-9.1 8.4-13.8 12.5-.6.5-1.6.6-2.4.8-.2-.3-.2-.6-.2-.9M200.9 242.6c-7 7-14.1 14-21.1 21.1-3.8 3.8-7.6 7.7-11.1 11.7-1 1.1-1.5 2.7-1.8 4.2-.3 1.9-1.2 3.2-3 2.8-1.2-.2-2.6-1.4-3-2.5-.6-1.7.7-2.8 2.4-3.5 1.2-.4 2.4-1.1 3.3-2 10.5-10.4 20.9-20.9 31.3-31.3.6-.6 1.6-.9 2.4-1.3.2.2.4.5.6.8M110.2 314.5c-.7.6-2.1 2.4-3.4 2.4-1.1-.1-2.6-2.2-3-3.7-.5-1.9 1.1-3.6 3.1-3.5 2 0 3.5 1.3 3.3 4.8M285.5 59.1c.3-1.9 1.1-3.6 3.5-3.5 2.3.1 3.2 1.7 3.2 3.8-.1 2.1-1.4 3.3-3.4 3.3-2.3 0-3.2-1.5-3.3-3.6M152.3 289.8c-.7-1.3-1.6-2.2-1.4-2.6.3-.8 1.3-1.4 2-2.1.6.6 1.7 1.4 1.6 1.9-.2.8-1.1 1.5-2.2 2.8"/><path d="M262.1 62.1c1.2-1 2.4-2.7 3.5-2.7 1.2.1 3.1 1.7 3.3 2.9.4 1.9-1.2 3.5-3.3 3.3-1.2-.1-2.3-1.4-3.5-2.1.1-.5.1-1 0-1.4"/></svg>